<?xml version="1.0" encoding="UTF-8"?>
<svg xmlns="http://www.w3.org/2000/svg" id="Layer_1" data-name="Layer 1" viewBox="0 0 695.94 294.75">
  <defs>
    <style>.cls-1{fill:none;}.cls-2{fill:#76c58b;}.cls-3{fill:#328541;}.cls-4{fill:#28b457;}</style>
  </defs>
  <path class="cls-1" d="M442.84,207.39c-.46-.35-1-.78-1.56-1.13h0C441.8,206.61,442.38,207,442.84,207.39Z" transform="translate(-47.78 -43.22)"></path>
  <path class="cls-1" d="M442.94,207.47l.37.3Z" transform="translate(-47.78 -43.22)"></path>
  <path class="cls-1" d="M466.54,208.15a30.85,30.85,0,0,1,3.65,1.68h0A22.25,22.25,0,0,0,466.54,208.15Z" transform="translate(-47.78 -43.22)"></path>
  <path class="cls-1" d="M408.5,221.33c6.11-8.65,19.64-14.08,30.82-15.47C428.14,207.25,414.61,212.68,408.5,221.33Z" transform="translate(-47.78 -43.22)"></path>
  <path class="cls-2" d="M470.19,209.83h0c8.45,4.56,12.75,9.27,15.36,13.4l45.11-104.52H478.22s-13.57,34.17-16.89,45.76c-2.65,9.27-7.42,35.46-8.39,40.82a48.11,48.11,0,0,1,13.6,2.86A22.25,22.25,0,0,1,470.19,209.83Z" transform="translate(-47.78 -43.22)"></path>
  <path class="cls-1" d="M407.21,223.15l.1.07,0-.06Z" transform="translate(-47.78 -43.22)"></path>
  <path class="cls-1" d="M407.31,223.22v0Z" transform="translate(-47.78 -43.22)"></path>
  <path class="cls-3" d="M441.28,206.26h0c-.31-.22-.6-.41-.81-.53C440.68,205.85,441,206.05,441.28,206.26Z" transform="translate(-47.78 -43.22)"></path>
  <path class="cls-3" d="M408.5,221.33c6.11-8.65,19.64-14.08,30.82-15.47.38-.05.77-.1,1.15-.13l-.3-.18s.35-.05,1-.11c-1-6.13-5.3-31.31-7.84-40.37-3.24-11.6-16.89-46.37-16.89-46.37H363.28l44,104.46h0A21,21,0,0,1,408.5,221.33Z" transform="translate(-47.78 -43.22)"></path>
  <path class="cls-3" d="M487,225.73c-.42-.81-.9-1.64-1.44-2.5-2.61-4.13-6.91-8.84-15.36-13.4h0a30.85,30.85,0,0,0-3.65-1.68,48.11,48.11,0,0,0-13.6-2.86,67.48,67.48,0,0,0-11.79.15c-.63.06-1,.11-1,.11l.3.18c.21.12.5.31.81.53.52.35,1.1.78,1.56,1.13l.1.08.37.3c7.37,6.36,9.46,27.15,9.46,27.15s5,33.47,7.81,44.5c3.58,14,18.66,55.49,18.66,55.49h52.43S500.87,252.38,487,225.73Z" transform="translate(-47.78 -43.22)"></path>
  <path class="cls-3" d="M407.34,223.17h0l0,.06v0Z" transform="translate(-47.78 -43.22)"></path>
  <path class="cls-2" d="M407.31,223.22c-.28.52-.56,1-.79,1.56L362,334.91H415s15.37-41.44,18.91-55.49c2.77-11,7.31-44.5,7.31-44.5-4.51-.3-8.08-1.09-17.64-3.85A54.92,54.92,0,0,1,407.31,223.22Z" transform="translate(-47.78 -43.22)"></path>
  <path class="cls-4" d="M442.84,207.39l.1.08Z" transform="translate(-47.78 -43.22)"></path>
  <path class="cls-4" d="M407.32,223.2l0,0a20.83,20.83,0,0,1,1.16-1.83,21,21,0,0,0-1.16,1.84Z" transform="translate(-47.78 -43.22)"></path>
  <path class="cls-4" d="M443.31,207.77l-.37-.3-.1-.08c-.46-.35-1-.78-1.56-1.13-.31-.21-.6-.41-.81-.53-.38,0-.77.08-1.15.13-11.18,1.39-24.71,6.82-30.82,15.47a20.83,20.83,0,0,0-1.16,1.83l0,0v0a54.92,54.92,0,0,0,16.22,7.85c9.56,2.76,13.13,3.55,17.64,3.85,2.89.19,11.6,0,11.6,0S450.68,214.13,443.31,207.77Z" transform="translate(-47.78 -43.22)"></path>
  <path class="cls-3" d="M68.31,334.91V148.62H47.78V118.71H68.31V97.27q-.18-29,14.24-41.53t44.86-12.52a109.87,109.87,0,0,1,12,.72q6.39.73,12,1.63V74.39L139.66,74q-5.94-.18-12.07-.18-10.45,0-15.4,4.86t-5,15.5v24.5H144v29.91H107.23V334.91Z" transform="translate(-47.78 -43.22)"></path>
  <rect class="cls-3" x="121.07" y="3.42" width="39.09" height="288.26"></rect>
  <path class="cls-3" d="M292.26,338q-30.64,0-44.51-12.61t-15.31-41.44q-.36-10.28-.54-25.13t-.18-31.17q0-16.31.18-31.44t.54-25.94q1.8-29.37,15.68-42t43.77-12.61q29.73,0,43.06,12.34t14.6,40.63q.18,4.86.36,15.31t.09,23.51q-.09,13.06-.81,26.21H271q0,13.33.27,26.76t.45,27.47q.36,11.36,5,15.86t15.31,4.5q10.28,0,14.51-4.5t4.77-15.86q.36-5.4.36-13.78t-.36-18.29h37.84c.36,3.25.56,7.66.63,13.25s0,10.54-.27,14.86q-1.26,28.83-14.42,41.44T292.26,338ZM271,206.09h40.71V188.61q0-8.46-.09-14.86c-.06-4.26-.15-7.3-.27-9.1q-.54-10.44-5-14.86t-14.42-4.42q-10.62,0-15.22,4.42t-4.95,14.86q-.2,11-.36,21.17T271,206.09Z" transform="translate(-47.78 -43.22)"></path>
  <path class="cls-3" d="M559.12,81.42V46.65h38.73V81.42Zm-.19,253.49V118.71h38.92v216.2Z" transform="translate(-47.78 -43.22)"></path>
  <path class="cls-3" d="M686,338q-30.63,0-44.5-12.61t-15.31-41.44q-.37-10.28-.55-25.13t-.18-31.17q0-16.31.18-31.44t.55-25.94q1.79-29.37,15.67-42t43.78-12.61q29.73,0,43.06,12.34t14.59,40.63q.18,4.86.36,15.31t.09,23.51q-.09,13.06-.81,26.21H664.69q0,13.33.27,26.76t.45,27.47q.36,11.36,5,15.86t15.32,4.5q10.26,0,14.5-4.5t4.78-15.86q.36-5.4.36-13.78t-.36-18.29h37.83q.54,4.88.63,13.25t-.27,14.86q-1.26,28.83-14.41,41.44T686,338ZM664.69,206.09h40.72V188.61q0-8.46-.09-14.86c-.07-4.26-.16-7.3-.27-9.1q-.54-10.44-5-14.86t-14.41-4.42q-10.64,0-15.22,4.42t-5,14.86q-.18,11-.36,21.17T664.69,206.09Z" transform="translate(-47.78 -43.22)"></path>
</svg>
